<?xml version="1.0" encoding="UTF-8"?>
<svg width="48" height="48" version="1.1" viewBox="0 0 48 48" xmlns="http://www.w3.org/2000/svg">
 <rect x="4.5" y="4.5" width="39" height="39" rx="8" ry="8" fill="#00d564" stroke="#000"/>
 <g id="new" transform="translate(4,4)">
  <rect x=".5" y=".5" width="19" height="7" fill="#51b91c" stroke="#46a21f"/>
  <g transform="translate(3 2)" fill="#fff">
   <path d="m4.2012 3.8477q0 0.062373-0.081843 0.10915-0.081843 0.043659-0.19097 0.043659h-0.49104q-0.30007-0.34303-1.0639-1.1289-0.76383-0.78585-1.3694-1.4314v2.5602h-1.0039v-3.8357q0-0.062369 0.081843-0.10915 0.081843-0.046777 0.19097-0.046777h0.56742q0 0.00312 0.092753 0.10603t0.24553 0.27443q0.15276 0.17151 0.34918 0.38981 0.20187 0.2183 0.4092 0.45218 0.21279 0.23389 0.42011 0.46465 0.20734 0.22764 0.38192 0.421 0.1746 0.19023 0.29462 0.32432 0.12548 0.13409 0.16368 0.17775v-2.6102h1.0039z"/>
   <path d="m8.4123 3.9948h-2.3569q-0.50741 0-0.9166-0.18399-0.41465-0.18399-0.41465-0.46777v-2.685q0-0.28378 0.41465-0.47089t0.9166-0.18711h2.3569v0.49272h-2.2916q-0.21279 0-0.31099 0.077962-0.098203 0.077962-0.098203 0.19023v0.96357h2.4771v0.48024h-2.4771v1.0354q0 0.11226 0.098203 0.19023 0.098203 0.077962 0.31099 0.077962h2.2916z"/>
   <path d="m8.9423 0.14316q0-0.15281 0.34373-0.13409h0.66562v2.3358l1.1566-1.5406h0.72019l1.1621 1.6715v-2.4667h0.62744q0.07093-0.00312 0.12549-0.00312 0.20187 0 0.23461 0.074843 0.03274 0.074843 0.01637 0.13098v3.7827h-0.84568l-1.6368-2.1175h-0.08183l-1.6368 2.1175h-0.84567v-3.7827q-0.01085-0.034303-0.0054-0.068607z"/>
  </g>
 </g>
 <g id="up" transform="translate(37.5,9.5)">
  <ellipse cx=".5" cy=".5" rx="8.5" ry="8.5" fill="#ffc600" stroke="#eba702"/>
  <g transform="translate(9 9)">
   <path d="m-13.098-6.653q0 0.40156 0.581 0.40156h1.5959q0.2944 0 0.4493-0.11673 0.1627-0.11673 0.1627-0.28483v-4.842l1.4022-5e-3v5.0008q0 0.4109-0.5655 0.69572-0.5656 0.28482-1.2782 0.28482h-1.8593q-0.7205 0-1.3015-0.27549-0.5888-0.27549-0.5888-0.70506v-4.9961h1.4022z"/>
   <path d="m-2.4998-9.0206q0 0.41556-0.4184 0.67704-0.4183 0.25681-1.1156 0.25681h-2.7269v2.5868h-1.4099v-5.986h3.827q0.7592 0 1.3015 0.3035t0.5423 0.76109zm-1.4022-0.20078v-1.0459q0-0.31284-0.4029-0.45292-0.1239-0.0467-0.2866-0.042h-2.1691v1.9424h2.4016q0.3951-5e-3 0.4416-0.25681 0.015-0.0747 0.015-0.14475z"/>
  </g>
 </g>
 <g id="avatar" fill="#e4e4e4">
  <path d="m33 25a9 10 0 0 1-9 10 9 10 0 0 1-9-10 9 10 0 0 1 9-10 9 10 0 0 1 9 10z"/>
  <path d="m12 43v-1s5.143-8 11.673-8c6.5305 0 12.327 8 12.327 8v1z"/>
 </g>
</svg>
